<svg width="34" height="34" viewBox="0 0 34 34" fill="none" xmlns="http://www.w3.org/2000/svg">
  <path d="M10.6249 14.6002C9.61624 18.9564 15.2241 20.065 13.9002 23.1342C12.5757 26.2027 9.61128 25.5892 9.94207 28.6577C10.2736 31.727 14.1963 31.7702 17.7677 29.9214C24.9099 26.2232 26.4002 18.1454 23.1681 14.6002C19.1957 10.2439 11.6336 10.2439 10.6249 14.6002Z" fill="white" stroke="white" stroke-width="4" />
  <path d="M23.0965 11.2151C23.6959 11.7181 24.7933 11.3969 25.5477 10.4979C26.3021 9.59887 26.4277 8.46236 25.8284 7.95944C25.229 7.45652 24.1316 7.77764 23.3772 8.67667C22.6229 9.57571 22.4972 10.7122 23.0965 11.2151Z" fill="white" />
  <path d="M19.9136 9.43666C20.6227 9.76732 21.5996 9.17311 22.0956 8.10947C22.5916 7.04582 22.4188 5.91551 21.7097 5.58485C21.0006 5.2542 20.0237 5.8484 19.5277 6.91205C19.0317 7.9757 19.2045 9.106 19.9136 9.43666Z" fill="white" />
  <path d="M16.3392 8.91557C17.1173 8.99735 17.8475 8.11747 17.9702 6.95029C18.0929 5.78312 17.5615 4.77064 16.7834 4.68885C16.0053 4.60707 15.2751 5.48695 15.1524 6.65413C15.0297 7.82131 15.5611 8.83379 16.3392 8.91557Z" fill="white" />
  <path d="M10.8856 8.32912C11.9885 7.92772 12.4486 6.4103 11.9134 4.93986C11.3782 3.46943 10.0504 2.6028 8.94753 3.00419C7.8447 3.40559 7.38455 4.92301 7.91974 6.39345C8.45494 7.86389 9.78282 8.73052 10.8856 8.32912Z" fill="white" stroke="white" stroke-width="4" />
  <path d="M25.6676 13.7873C26.1705 14.3866 27.307 14.2609 28.2061 13.5066C29.1051 12.7522 29.4262 11.6548 28.9233 11.0554C28.4204 10.4561 27.2839 10.5817 26.3849 11.3361C25.4858 12.0905 25.1647 13.1879 25.6676 13.7873Z" fill="white" />
</svg>