<svg width="34" height="34" viewBox="0 0 34 34" fill="none" xmlns="http://www.w3.org/2000/svg">
  <path d="M19.8589 24.8335C19.8589 24.8335 23.3361 22.5733 24.0316 22.2256C24.7271 21.8778 25.5094 21.704 25.9441 22.0517C26.6396 22.4864 32.464 26.3114 32.9856 26.6591C33.5072 27.0068 33.681 27.9631 33.0725 28.9193C32.3771 29.8756 29.3344 33.7006 28.0305 33.6136C26.7265 33.6136 20.7282 33.9614 10.3833 23.7034C0.0384182 13.3585 0.386145 7.36022 0.386145 6.05624C0.386145 4.75226 4.12421 1.62272 5.08046 1.01419C6.03671 0.31874 6.99296 0.579536 7.34069 1.10113C7.68842 1.62272 11.5134 7.44715 11.9481 8.1426C12.2089 8.57726 12.1219 9.35965 11.7742 10.0551C11.4265 10.7506 9.16626 14.2278 9.16626 14.2278C9.16626 14.2278 9.77478 16.6619 13.5128 20.4869C17.3378 24.225 19.8589 24.8335 19.8589 24.8335Z" fill="white" />
</svg>