<svg width="34" height="34" viewBox="0 0 34 34" fill="none" xmlns="http://www.w3.org/2000/svg">
  <path d="M4.25 17H17V19.125H4.25V17ZM2.125 11.6875H12.75V13.8125H2.125V11.6875Z" fill="white" stroke="white" stroke-width="0.5" />
  <path d="M31.7887 17.6439L28.6012 10.2064C28.5194 10.0152 28.3833 9.85228 28.2097 9.73781C28.0361 9.62335 27.8327 9.56239 27.6248 9.5625H24.4373V7.4375C24.4373 7.15571 24.3254 6.88546 24.1261 6.6862C23.9269 6.48694 23.6566 6.375 23.3748 6.375H6.37481V8.5H22.3123V21.8407C21.8282 22.1219 21.4045 22.4961 21.0656 22.9418C20.7268 23.3874 20.4796 23.8958 20.3382 24.4375H13.6614C13.4028 23.4359 12.7878 22.563 11.9317 21.9825C11.0755 21.4019 10.037 21.1535 9.01087 21.2839C7.98469 21.4142 7.04128 21.9143 6.35746 22.6905C5.67365 23.4667 5.29639 24.4656 5.29639 25.5C5.29639 26.5344 5.67365 27.5333 6.35746 28.3095C7.04128 29.0857 7.98469 29.5858 9.01087 29.7161C10.037 29.8465 11.0755 29.5981 11.9317 29.0175C12.7878 28.437 13.4028 27.5641 13.6614 26.5625H20.3382C20.5693 27.4744 21.0979 28.2832 21.8403 28.8609C22.5827 29.4386 23.4966 29.7523 24.4373 29.7523C25.378 29.7523 26.2919 29.4386 27.0343 28.8609C27.7767 28.2832 28.3053 27.4744 28.5364 26.5625H30.8123C31.0941 26.5625 31.3644 26.4506 31.5636 26.2513C31.7629 26.052 31.8748 25.7818 31.8748 25.5V18.0625C31.8749 17.9186 31.8456 17.7761 31.7887 17.6439ZM9.56231 27.625C9.14202 27.625 8.73117 27.5004 8.38172 27.2669C8.03227 27.0334 7.7599 26.7015 7.59906 26.3132C7.43823 25.9249 7.39614 25.4976 7.47814 25.0854C7.56013 24.6732 7.76252 24.2946 8.0597 23.9974C8.35689 23.7002 8.73553 23.4978 9.14774 23.4158C9.55995 23.3338 9.98722 23.3759 10.3755 23.5368C10.7638 23.6976 11.0957 23.97 11.3292 24.3194C11.5627 24.6689 11.6873 25.0797 11.6873 25.5C11.6867 26.0634 11.4627 26.6036 11.0643 27.002C10.6659 27.4004 10.1257 27.6244 9.56231 27.625ZM24.4373 11.6875H26.9236L29.2016 17H24.4373V11.6875ZM24.4373 27.625C24.017 27.625 23.6062 27.5004 23.2567 27.2669C22.9073 27.0334 22.6349 26.7015 22.4741 26.3132C22.3132 25.9249 22.2711 25.4976 22.3531 25.0854C22.4351 24.6732 22.6375 24.2946 22.9347 23.9974C23.2319 23.7002 23.6105 23.4978 24.0227 23.4158C24.4349 23.3338 24.8622 23.3759 25.2505 23.5368C25.6388 23.6976 25.9707 23.97 26.2042 24.3194C26.4377 24.6689 26.5623 25.0797 26.5623 25.5C26.5617 26.0634 26.3377 26.6036 25.9393 27.002C25.5409 27.4004 25.0007 27.6244 24.4373 27.625ZM29.7498 24.4375H28.5364C28.3024 23.5274 27.773 22.7207 27.0311 22.1438C26.2893 21.567 25.377 21.2526 24.4373 21.25V19.125H29.7498V24.4375Z" fill="white" stroke="white" stroke-width="0.5" />
</svg>