<svg width="17" height="16" viewBox="0 0 17 16" fill="none" xmlns="http://www.w3.org/2000/svg">
  <path d="M8.79704 1.3335C12.479 1.3335 15.4637 4.31816 15.4637 8.00016C15.4637 11.6822 12.479 14.6668 8.79704 14.6668C5.11504 14.6668 2.13037 11.6822 2.13037 8.00016C2.13037 4.31816 5.11504 1.3335 8.79704 1.3335ZM8.79704 2.66683C7.38255 2.66683 6.026 3.22873 5.0258 4.22893C4.02561 5.22912 3.4637 6.58567 3.4637 8.00016C3.4637 9.41465 4.02561 10.7712 5.0258 11.7714C6.026 12.7716 7.38255 13.3335 8.79704 13.3335C10.2115 13.3335 11.5681 12.7716 12.5683 11.7714C13.5685 10.7712 14.1304 9.41465 14.1304 8.00016C14.1304 6.58567 13.5685 5.22912 12.5683 4.22893C11.5681 3.22873 10.2115 2.66683 8.79704 2.66683ZM8.79704 4.00016C8.96033 4.00018 9.11793 4.06013 9.23995 4.16864C9.36198 4.27715 9.43993 4.42666 9.45904 4.58883L9.4637 4.66683V7.72416L11.2684 9.52883C11.3879 9.6488 11.4574 9.80979 11.4625 9.97909C11.4677 10.1484 11.4082 10.3133 11.2962 10.4403C11.1842 10.5674 11.028 10.647 10.8594 10.6631C10.6908 10.6792 10.5224 10.6304 10.3884 10.5268L10.3257 10.4715L8.3257 8.4715C8.22209 8.36779 8.15555 8.23283 8.13637 8.0875L8.13037 8.00016V4.66683C8.13037 4.49002 8.20061 4.32045 8.32563 4.19543C8.45066 4.0704 8.62023 4.00016 8.79704 4.00016Z" fill="#06739A" />
</svg>