<svg width="27" height="26" viewBox="0 0 27 26" fill="06739A" xmlns="http://www.w3.org/2000/svg">
  <path d="M7.96854 11.6892C9.52854 14.755 12.0419 17.2575 15.1077 18.8283L17.491 16.445C17.7835 16.1525 18.2169 16.055 18.596 16.185C19.8094 16.5858 21.1202 16.8025 22.4635 16.8025C23.0594 16.8025 23.5469 17.29 23.5469 17.8858V21.6667C23.5469 22.2625 23.0594 22.75 22.4635 22.75C12.291 22.75 4.04688 14.5058 4.04688 4.33333C4.04688 3.7375 4.53438 3.25 5.13021 3.25H8.92188C9.51771 3.25 10.0052 3.7375 10.0052 4.33333C10.0052 5.6875 10.2219 6.9875 10.6227 8.20083C10.7419 8.58 10.6552 9.0025 10.3519 9.30583L7.96854 11.6892Z" fill="#06739A" />
</svg>