<svg width="35" height="42" viewBox="0 0 35 42" fill="none" xmlns="http://www.w3.org/2000/svg">
  <g opacity="0.5">
    <path d="M8.09936 0C7.61974 0 7.20766 0.340527 7.11728 0.811556L7 1.42275L5.26544 11.1797C5.25517 11.2374 5.25 11.296 5.25 11.3547V17.4119C5.25 17.4606 5.28945 17.5 5.33811 17.5C5.38195 17.5 5.41908 17.5322 5.42557 17.5756C5.67457 19.2398 6.2623 20.8356 7.15272 22.2641C7.73425 23.1971 8.43668 24.0456 9.23974 24.7884C9.81918 25.3244 9.71871 26.3424 9.02941 26.727C3.9386 29.5673 0.379529 34.8634 0.0285331 40.9998C-0.00300539 41.5512 0.447715 42 1 42H2.49865C3.05146 42 3.49568 41.5509 3.5345 40.9994C3.6581 39.2438 4.11239 37.5241 4.8766 35.932C5.64542 34.3303 6.71119 32.8926 8.01436 31.6936C8.30196 31.429 8.75 31.6412 8.75 32.032C8.75 32.1469 8.79248 32.2578 8.86928 32.3434L9.24175 32.7583L16.2418 39.7583L16.8092 40.3004C17.1957 40.6697 17.8043 40.6697 18.1908 40.3004L18.7582 39.7583L25.7582 32.7583L26.1307 32.3434C26.2075 32.2578 26.25 32.1469 26.25 32.032C26.25 31.6412 26.698 31.429 26.9856 31.6936C28.2888 32.8926 29.3546 34.3303 30.1234 35.932C30.8876 37.5241 31.3419 39.2438 31.4655 40.9994C31.5043 41.5509 31.9485 42 32.5013 42H34C34.5523 42 35.003 41.5512 34.9715 40.9998C34.6204 34.8631 31.0609 29.5679 25.9694 26.7254C25.2804 26.3407 25.1802 25.3231 25.7596 24.7873C26.5628 24.0446 27.2653 23.1961 27.847 22.2632C28.7374 20.8349 29.3252 19.2395 29.5744 17.5756C29.5809 17.5322 29.618 17.5 29.6619 17.5C29.7105 17.5 29.75 17.4605 29.75 17.4119V11.353C29.75 11.2943 29.7448 11.2357 29.7346 11.1779L28 1.42275L27.8827 0.811556C27.7923 0.340527 27.3803 0 26.9006 0H8.09936ZM10.0812 4.32616C10.1655 3.84833 10.5807 3.5 11.0659 3.5H23.9341C24.4193 3.5 24.8345 3.84833 24.9188 4.32616L26.2348 11.7805C26.2449 11.8379 26.25 11.8961 26.25 11.9543V13C26.25 13.5523 25.8023 14 25.25 14H9.75C9.19771 14 8.75 13.5523 8.75 13V11.9543C8.75 11.8961 8.75509 11.8379 8.76523 11.7805L10.0812 4.32616ZM16.625 5.25C16.1418 5.25 15.75 5.64175 15.75 6.125C15.75 6.60825 15.3582 7 14.875 7C14.3918 7 14 7.39175 14 7.875V9.625C14 10.1082 14.3918 10.5 14.875 10.5C15.3582 10.5 15.75 10.8918 15.75 11.375C15.75 11.8582 16.1418 12.25 16.625 12.25H18.375C18.8582 12.25 19.25 11.8582 19.25 11.375C19.25 10.8918 19.6418 10.5 20.125 10.5C20.6082 10.5 21 10.1082 21 9.625V7.875C21 7.39175 20.6082 7 20.125 7C19.6418 7 19.25 6.60825 19.25 6.125C19.25 5.64175 18.8582 5.25 18.375 5.25H16.625ZM9.24274 18.6792C9.03084 18.083 9.50672 17.5 10.1394 17.5H24.8606C25.4933 17.5 25.9692 18.083 25.7573 18.6792C25.2238 20.1801 24.2877 21.5149 23.0412 22.5312C21.4765 23.807 19.5189 24.5025 17.5 24.5C15.4811 24.5025 13.5235 23.807 11.9588 22.5312C10.7123 21.5149 9.77619 20.1801 9.24274 18.6792ZM17.5 28C19.0699 27.9918 20.6284 28.246 22.1116 28.7507C22.5002 28.8829 22.75 29.2549 22.75 29.6654V30.321C22.75 30.5863 22.6446 30.8406 22.4571 31.0281L18.2071 35.2781C17.8166 35.6687 17.1834 35.6687 16.7929 35.2781L12.5429 31.0281C12.3554 30.8406 12.25 30.5863 12.25 30.321V29.6654C12.25 29.2549 12.4998 28.8829 12.8884 28.7507C14.3716 28.246 15.9301 27.9918 17.5 28Z" fill="white" />
  </g>
</svg>