<svg width="35" height="42" viewBox="0 0 35 42" fill="none" xmlns="http://www.w3.org/2000/svg">
  <g opacity="0.5" clip-path="url(#clip0_118_3818)">
    <path d="M32.5985 21.8866L25.861 18.165V14.8166C25.1359 14.3629 24.4788 13.7676 23.9166 13.055V18.1766L17.5971 21.6766L11.2777 18.1766V9.3333L17.1888 12.6C17.3168 12.671 17.4561 12.7079 17.5971 12.7079C17.7381 12.7079 17.8775 12.671 18.0054 12.6L22.361 10.1733C22.1146 9.42647 21.9606 8.64035 21.9041 7.83997L17.5582 10.1733L12.6388 7.50163L17.5971 4.75997L21.9138 7.0933C21.9138 7.0933 21.9138 7.0233 21.9138 6.9883C21.9139 6.19993 22.0022 5.41514 22.1763 4.65497L17.9957 2.32163C17.8677 2.25056 17.7284 2.21375 17.5874 2.21375C17.4464 2.21375 17.307 2.25056 17.1791 2.32163L9.88738 6.34663C9.71863 6.44035 9.57581 6.59018 9.47586 6.77836C9.37591 6.96653 9.32304 7.18515 9.3235 7.4083V18.0716L2.61516 21.7816C2.4464 21.8754 2.30358 22.0252 2.20364 22.2134C2.10369 22.4015 2.05081 22.6202 2.05127 22.8433V34.2533C2.05081 34.4764 2.10369 34.6951 2.20364 34.8832C2.30358 35.0714 2.4464 35.2212 2.61516 35.315L9.90683 39.34C10.0348 39.411 10.1741 39.4479 10.3152 39.4479C10.4562 39.4479 10.5955 39.411 10.7235 39.34L17.6068 35.5366L24.4902 39.34C24.6181 39.411 24.7575 39.4479 24.8985 39.4479C25.0395 39.4479 25.1789 39.411 25.3068 39.34L32.5985 35.315C32.7673 35.2212 32.9101 35.0714 33.01 34.8832C33.11 34.6951 33.1628 34.4764 33.1624 34.2533V22.9483C33.1628 22.7252 33.11 22.5065 33.01 22.3184C32.9101 22.1302 32.7673 21.9804 32.5985 21.8866ZM10.3054 20.195L15.2735 22.9366L10.3054 25.6666L5.33738 22.9483L10.3054 20.195ZM10.3054 37.1L3.98599 33.6V24.7683L9.89711 28C10.0224 28.0676 10.1583 28.1025 10.2957 28.1025C10.4331 28.1025 10.569 28.0676 10.6943 28L16.6054 24.7333V33.6L10.3054 37.1ZM24.8888 20.2066L29.8568 22.9483L24.8985 25.6666L19.9304 22.9483L24.8888 20.2066ZM24.8888 37.1116L18.5596 33.6116V24.7566L24.4902 28C24.6142 28.0659 24.7483 28.0999 24.8839 28.0999C25.0195 28.0999 25.1537 28.0659 25.2777 28L31.1888 24.7333V33.6116L24.8888 37.1116Z" fill="white" stroke="white" stroke-width="0.7" />
    <path d="M29.1956 12.8683C31.8803 12.8683 34.0567 10.2567 34.0567 7.03499C34.0567 3.81333 31.8803 1.20166 29.1956 1.20166C26.5109 1.20166 24.3345 3.81333 24.3345 7.03499C24.3345 10.2567 26.5109 12.8683 29.1956 12.8683Z" fill="white" />
  </g>
  <defs>
    <clipPath id="clip0_118_3818">
      <rect width="35" height="42" fill="white" />
    </clipPath>
  </defs>
</svg>