<svg width="28" height="28" viewBox="0 0 28 28" fill="none" xmlns="http://www.w3.org/2000/svg">
  <path d="M21.1203 5.27984C20.8039 5.27984 20.4945 5.37368 20.2314 5.54949C19.9683 5.7253 19.7632 5.97518 19.6421 6.26754C19.521 6.55991 19.4893 6.88161 19.5511 7.19198C19.6128 7.50235 19.7652 7.78744 19.989 8.01121C20.2127 8.23497 20.4978 8.38736 20.8082 8.44909C21.1186 8.51083 21.4403 8.47914 21.7326 8.35804C22.025 8.23694 22.2749 8.03187 22.4507 7.76875C22.6265 7.50563 22.7203 7.19629 22.7203 6.87984C22.7203 6.45549 22.5518 6.04852 22.2517 5.74847C21.9516 5.44841 21.5447 5.27984 21.1203 5.27984ZM27.2537 8.5065C27.2277 7.40023 27.0205 6.30571 26.6403 5.2665C26.3013 4.37735 25.7736 3.57221 25.0937 2.9065C24.4334 2.22307 23.6264 1.69874 22.7337 1.37317C21.6972 0.981385 20.6015 0.769451 19.4937 0.746504C18.0803 0.666504 17.627 0.666504 14.0003 0.666504C10.3737 0.666504 9.92033 0.666504 8.50699 0.746504C7.3992 0.769451 6.30345 0.981385 5.26699 1.37317C4.37589 1.70204 3.56957 2.22592 2.90699 2.9065C2.22356 3.56674 1.69923 4.37376 1.37366 5.2665C0.981873 6.30296 0.769939 7.39871 0.746992 8.5065C0.666992 9.91984 0.666992 10.3732 0.666992 13.9998C0.666992 17.6265 0.666992 18.0798 0.746992 19.4932C0.769939 20.601 0.981873 21.6967 1.37366 22.7332C1.69923 23.6259 2.22356 24.4329 2.90699 25.0932C3.56957 25.7738 4.37589 26.2976 5.26699 26.6265C6.30345 27.0183 7.3992 27.2302 8.50699 27.2532C9.92033 27.3332 10.3737 27.3332 14.0003 27.3332C17.627 27.3332 18.0803 27.3332 19.4937 27.2532C20.6015 27.2302 21.6972 27.0183 22.7337 26.6265C23.6264 26.3009 24.4334 25.7766 25.0937 25.0932C25.7766 24.4299 26.3048 23.6241 26.6403 22.7332C27.0205 21.694 27.2277 20.5994 27.2537 19.4932C27.2537 18.0798 27.3337 17.6265 27.3337 13.9998C27.3337 10.3732 27.3337 9.91984 27.2537 8.5065ZM24.8537 19.3332C24.8439 20.1795 24.6907 21.0181 24.4003 21.8132C24.1874 22.3934 23.8455 22.9177 23.4003 23.3465C22.9679 23.7872 22.4446 24.1284 21.867 24.3465C21.0719 24.6368 20.2334 24.7901 19.387 24.7998C18.0537 24.8665 17.5603 24.8798 14.0537 24.8798C10.547 24.8798 10.0537 24.8798 8.72032 24.7998C7.84151 24.8163 6.96645 24.681 6.13366 24.3998C5.58137 24.1706 5.08213 23.8302 4.66699 23.3998C4.22444 22.9715 3.88678 22.4468 3.68033 21.8665C3.3548 21.06 3.17425 20.2024 3.14699 19.3332C3.14699 17.9998 3.06699 17.5065 3.06699 13.9998C3.06699 10.4932 3.06699 9.99984 3.14699 8.6665C3.15297 7.80124 3.31093 6.94376 3.61366 6.13317C3.84839 5.57039 4.20868 5.06871 4.66699 4.6665C5.07208 4.20806 5.57271 3.84396 6.13366 3.59984C6.94639 3.30656 7.80299 3.15328 8.66699 3.1465C10.0003 3.1465 10.4937 3.0665 14.0003 3.0665C17.507 3.0665 18.0003 3.0665 19.3337 3.1465C20.18 3.15621 21.0186 3.3095 21.8137 3.59984C22.4196 3.82471 22.9634 4.1903 23.4003 4.6665C23.8373 5.07607 24.1787 5.57681 24.4003 6.13317C24.6967 6.94508 24.85 7.80221 24.8537 8.6665C24.9203 9.99984 24.9337 10.4932 24.9337 13.9998C24.9337 17.5065 24.9203 17.9998 24.8537 19.3332ZM14.0003 7.15984C12.6481 7.16247 11.3269 7.56587 10.2039 8.31906C9.08079 9.07225 8.20616 10.1414 7.6905 11.3915C7.17484 12.6416 7.04129 14.0165 7.30672 15.3424C7.57214 16.6684 8.22464 17.8859 9.18176 18.8411C10.1389 19.7964 11.3577 20.4465 12.6841 20.7094C14.0106 20.9722 15.3852 20.836 16.6343 20.3179C17.8834 19.7998 18.9508 18.9231 19.7018 17.7985C20.4528 16.674 20.8537 15.3521 20.8537 13.9998C20.8554 13.1 20.6793 12.2086 20.3353 11.3771C19.9914 10.5456 19.4864 9.79025 18.8495 9.15457C18.2126 8.51889 17.4563 8.01541 16.6241 7.67308C15.7919 7.33074 14.9002 7.15632 14.0003 7.15984ZM14.0003 18.4398C13.1222 18.4398 12.2637 18.1794 11.5336 17.6916C10.8034 17.2037 10.2344 16.5103 9.8983 15.699C9.56225 14.8876 9.47432 13.9949 9.64564 13.1336C9.81696 12.2724 10.2398 11.4812 10.8608 10.8603C11.4817 10.2393 12.2728 9.81647 13.1341 9.64515C13.9954 9.47383 14.8881 9.56176 15.6994 9.89781C16.5107 10.2339 17.2042 10.803 17.692 11.5331C18.1799 12.2633 18.4403 13.1217 18.4403 13.9998C18.4403 14.5829 18.3255 15.1603 18.1023 15.699C17.8792 16.2376 17.5522 16.7271 17.1399 17.1394C16.7276 17.5517 16.2381 17.8787 15.6994 18.1019C15.1608 18.325 14.5834 18.4398 14.0003 18.4398Z" fill="#00719B" />
</svg>