<svg width="28" height="28" viewBox="0 0 28 28" fill="none" xmlns="http://www.w3.org/2000/svg">
  <path d="M8.93755 12.094C8.13655 15.5534 12.5899 16.4337 11.5386 18.871C10.4867 21.3078 8.13262 20.8207 8.3953 23.2574C8.65855 25.6947 11.7737 25.729 14.6098 24.2609C20.2815 21.3241 21.465 14.9094 18.8983 12.094C15.7438 8.63467 9.73855 8.63467 8.93755 12.094Z" fill="white" stroke="white" />
  <path d="M18.8413 9.40619C19.3173 9.80557 20.1888 9.55057 20.7878 8.83663C21.3869 8.12269 21.4867 7.22017 21.0107 6.82079C20.5348 6.42142 19.6633 6.67642 19.0642 7.39036C18.4652 8.1043 18.3654 9.00682 18.8413 9.40619Z" fill="white" />
  <path d="M16.3135 7.99371C16.8766 8.25629 17.6524 7.78442 18.0462 6.93976C18.4401 6.0951 18.3029 5.1975 17.7398 4.93492C17.1767 4.67234 16.4009 5.14421 16.007 5.98887C15.6132 6.83353 15.7504 7.73113 16.3135 7.99371Z" fill="white" />
  <path d="M13.4755 7.58006C14.0934 7.64501 14.6733 6.94628 14.7708 6.0194C14.8682 5.09253 14.4462 4.2885 13.8283 4.22355C13.2104 4.15861 12.6305 4.85734 12.5331 5.78421C12.4357 6.71109 12.8576 7.51512 13.4755 7.58006Z" fill="white" />
  <path d="M9.1446 7.11435C10.0204 6.79559 10.3858 5.59058 9.96078 4.42288C9.53578 3.25518 8.48128 2.56698 7.60551 2.88573C6.72973 3.20449 6.36431 4.4095 6.78932 5.5772C7.21433 6.7449 8.26882 7.4331 9.1446 7.11435Z" fill="white" stroke="white" stroke-width="2" />
  <path d="M20.8833 11.4487C21.2827 11.9246 22.1852 11.8249 22.8992 11.2258C23.6131 10.6267 23.8681 9.75524 23.4687 9.27928C23.0694 8.80332 22.1668 8.90312 21.4529 9.50218C20.739 10.1013 20.484 10.9727 20.8833 11.4487Z" fill="white" />
</svg>