<svg width="8" height="6" viewBox="0 0 8 6" fill="none" xmlns="http://www.w3.org/2000/svg">
  <path d="M4.47351 5.28906L7.8041 1.72354C7.86621 1.65705 7.91547 1.57812 7.94909 1.49125C7.9827 1.40438 8 1.31127 8 1.21724C8 1.02734 7.92953 0.845215 7.8041 0.710935C7.74199 0.644446 7.66826 0.591704 7.58711 0.555721C7.50596 0.519737 7.41899 0.501217 7.33116 0.501217C7.15377 0.501217 6.98365 0.576655 6.85821 0.710935L4.00057 3.77728L1.14292 0.710935C1.081 0.644097 1.00733 0.591046 0.926154 0.554843C0.844981 0.518639 0.757916 0.5 0.669981 0.5C0.582045 0.5 0.494979 0.518639 0.413807 0.554843C0.332634 0.591046 0.258962 0.644097 0.197037 0.710935C0.134604 0.777227 0.0850468 0.856097 0.051229 0.942996C0.0174112 1.02989 4.76837e-07 1.1231 4.76837e-07 1.21724C4.76837e-07 1.31138 0.0174112 1.40458 0.051229 1.49148C0.0850468 1.57838 0.134604 1.65725 0.197037 1.72354L3.52762 5.28906C3.58955 5.3559 3.66322 5.40895 3.74439 5.44516C3.82557 5.48136 3.91263 5.5 4.00057 5.5C4.0885 5.5 4.17557 5.48136 4.25674 5.44516C4.33791 5.40895 4.41159 5.3559 4.47351 5.28906Z" fill="#06739A" />
</svg>