<svg width="15" height="12" viewBox="0 0 15 12" fill="none" xmlns="http://www.w3.org/2000/svg">
  <path d="M0.269531 6.11131C0.269531 6.48489 0.397618 6.80511 0.653792 7.07196L4.59247 10.8986C4.84864 11.1654 5.16886 11.2988 5.55312 11.2988C5.93738 11.2988 6.2576 11.1654 6.51377 10.8986L14.5993 2.97318C14.8661 2.717 14.9995 2.40212 14.9995 2.02853C14.9995 1.65495 14.8661 1.34007 14.5993 1.08389C14.3324 0.82772 14.0122 0.699633 13.6386 0.699633C13.265 0.699633 12.9448 0.833056 12.678 1.0999L5.55312 8.06463L2.59111 5.16667C2.32426 4.91049 2.00404 4.7824 1.63046 4.7824C1.25687 4.7824 0.936651 4.91049 0.669803 5.16667C0.402955 5.42284 0.269531 5.73772 0.269531 6.11131Z" fill="#00719B" />
</svg>