<svg width="13" height="13" viewBox="0 0 13 13" fill="none" xmlns="http://www.w3.org/2000/svg">
<path d="M2.91333 5.69333C3.87333 7.58 5.42 9.12 7.30667 10.0867L8.77333 8.62C8.95333 8.44 9.22 8.38 9.45333 8.46C10.2 8.70667 11.0067 8.84 11.8333 8.84C12.2 8.84 12.5 9.14 12.5 9.50667V11.8333C12.5 12.2 12.2 12.5 11.8333 12.5C5.57333 12.5 0.5 7.42667 0.5 1.16667C0.5 0.8 0.8 0.5 1.16667 0.5H3.5C3.86667 0.5 4.16667 0.8 4.16667 1.16667C4.16667 2 4.3 2.8 4.54667 3.54667C4.62 3.78 4.56667 4.04 4.38 4.22667L2.91333 5.69333Z" fill="#00719B"/>
</svg>
