<svg width="24" height="24" viewBox="0 0 24 24" fill="none" xmlns="http://www.w3.org/2000/svg">
  <path d="M3.26301 13C2.89692 13 2.58574 12.9286 2.32948 12.7857C2.10983 12.619 2 12.4167 2 12.1786V10.8214C2 10.5833 2.10983 10.3929 2.32948 10.25C2.58574 10.0833 2.89692 10 3.26301 10H19.737C20.1031 10 20.396 10.0833 20.6156 10.25C20.8719 10.3929 21 10.5833 21 10.8214V12.1786C21 12.4167 20.8719 12.619 20.6156 12.7857C20.396 12.9286 20.1031 13 19.737 13H3.26301Z" fill="#00719B" />
  <path d="M13 19.737C13 20.1031 12.9286 20.4143 12.7857 20.6705C12.619 20.8902 12.4167 21 12.1786 21H10.8214C10.5833 21 10.3929 20.8902 10.25 20.6705C10.0833 20.4143 10 20.1031 10 19.737L10 3.263C10 2.89692 10.0833 2.60405 10.25 2.38439C10.3929 2.12813 10.5833 2 10.8214 2H12.1786C12.4167 2 12.619 2.12813 12.7857 2.38439C12.9286 2.60405 13 2.89692 13 3.263V19.737Z" fill="#00719B" />
</svg>