<svg width="24" height="24" viewBox="0 0 24 24" fill="none" xmlns="http://www.w3.org/2000/svg">
<path fill-rule="evenodd" clip-rule="evenodd" d="M15.4639 15.3053C15.4039 15.3511 15.3503 15.4048 15.3044 15.4647C14.188 16.5436 12.6955 17.1455 11.143 17.143C10.3549 17.1442 9.57431 16.9895 8.84616 16.688C8.11801 16.3864 7.45666 15.9439 6.90015 15.3859C6.34206 14.8294 5.8995 14.168 5.59795 13.4399C5.29639 12.7117 5.14178 11.9311 5.143 11.143C5.143 9.48615 5.81329 7.987 6.90015 6.90015C7.45666 6.3421 8.11801 5.89957 8.84616 5.59801C9.57431 5.29646 10.3549 5.14182 11.143 5.143C12.7999 5.143 14.299 5.81329 15.3859 6.90015C15.9439 7.45664 16.3865 8.11798 16.6881 8.84613C16.9896 9.57429 17.1442 10.3549 17.143 11.143C17.1454 12.6959 16.5432 14.1888 15.4639 15.3053ZM20.3204 19.1084L17.1704 15.9584C18.2646 14.5922 18.8597 12.8934 18.8573 11.143C18.8585 10.1298 18.6595 9.12627 18.2718 8.19015C17.8841 7.25404 17.3152 6.40376 16.5979 5.68815C15.8822 4.97082 15.032 4.40195 14.0959 4.01421C13.1597 3.62646 12.1562 3.42749 11.143 3.42872C10.1298 3.42749 9.12627 3.62646 8.19015 4.01421C7.25404 4.40195 6.40376 4.97082 5.68815 5.68815C4.97082 6.40376 4.40195 7.25404 4.01421 8.19015C3.62646 9.12627 3.42749 10.1298 3.42872 11.143C3.42749 12.1562 3.62646 13.1597 4.01421 14.0959C4.40195 15.032 4.97082 15.8822 5.68815 16.5979C6.40376 17.3152 7.25404 17.8841 8.19015 18.2718C9.12627 18.6595 10.1298 18.8585 11.143 18.8573C12.8934 18.8597 14.5922 18.2646 15.9584 17.1704L19.1084 20.3204C19.2692 20.4812 19.4871 20.5714 19.7144 20.5714C19.9417 20.5714 20.1597 20.4812 20.3204 20.3204C20.4812 20.1597 20.5714 19.9417 20.5714 19.7144C20.5714 19.4871 20.4812 19.2692 20.3204 19.1084Z" fill="#00719B"/>
</svg>
