<svg width="37" height="35" viewBox="0 0 37 35" fill="none" xmlns="http://www.w3.org/2000/svg">
<path opacity="0.2" d="M17.4 0.927052C17.6994 0.0057416 19.0028 0.00574017 19.3021 0.927051L22.8414 11.8197C22.9752 12.2317 23.3592 12.5106 23.7924 12.5106H35.2456C36.2143 12.5106 36.6171 13.7503 35.8334 14.3197L26.5676 21.0517C26.2171 21.3063 26.0704 21.7577 26.2043 22.1697L29.7435 33.0623C30.0429 33.9836 28.9884 34.7497 28.2047 34.1803L18.9389 27.4483C18.5884 27.1937 18.1138 27.1937 17.7633 27.4483L8.49748 34.1803C7.71377 34.7497 6.65929 33.9836 6.95864 33.0623L10.4979 22.1697C10.6317 21.7577 10.4851 21.3063 10.1346 21.0517L0.868787 14.3197C0.085073 13.7503 0.487847 12.5106 1.45657 12.5106H12.9097C13.343 12.5106 13.7269 12.2317 13.8608 11.8197L17.4 0.927052Z" fill="#06739A"/>
</svg>
